<svg xmlns="http://www.w3.org/2000/svg" xmlns:xlink="http://www.w3.org/1999/xlink" viewBox="0 0 512 512" width="64px" height="64px"><defs><linearGradient id="iaxFV_d8SIq0B9xqjTPCla" x1="321.86" x2="321.86" y1="490.121" y2="74.36" gradientUnits="userSpaceOnUse"><stop offset=".322" stop-color="#a163f5"/><stop offset=".466" stop-color="#b074ee"/><stop offset=".752" stop-color="#d8a1dd"/><stop offset=".898" stop-color="#efbad3"/></linearGradient><linearGradient id="iaxFV_d8SIq0B9xqjTPClb" x1="349.135" x2="349.135" y1="490.121" y2="74.36" xlink:href="#iaxFV_d8SIq0B9xqjTPCla"/><linearGradient id="iaxFV_d8SIq0B9xqjTPClc" x1="162.865" x2="162.865" y1="490.121" y2="74.36" xlink:href="#iaxFV_d8SIq0B9xqjTPCla"/><linearGradient id="iaxFV_d8SIq0B9xqjTPCld" x1="256" x2="256" y1="490.121" y2="74.36" xlink:href="#iaxFV_d8SIq0B9xqjTPCla"/><linearGradient id="iaxFV_d8SIq0B9xqjTPCle" x1="163" x2="163" y1="490.121" y2="74.36" xlink:href="#iaxFV_d8SIq0B9xqjTPCla"/></defs><path fill="url(#iaxFV_d8SIq0B9xqjTPCla)" d="M301.92,169H341.8a6,6,0,0,0,0-12H301.92a6,6,0,0,0,0,12Z"/><path fill="url(#iaxFV_d8SIq0B9xqjTPClb)" d="M396.35,206H301.92a6,6,0,0,0,0,12h94.43a6,6,0,0,0,0-12Z"/><path fill="url(#iaxFV_d8SIq0B9xqjTPClb)" d="M396.35,255H301.92a6,6,0,0,0,0,12h94.43a6,6,0,0,0,0-12Z"/><path fill="url(#iaxFV_d8SIq0B9xqjTPClb)" d="M396.35,304H301.92a6,6,0,0,0,0,12h94.43a6,6,0,0,0,0-12Z"/><path fill="url(#iaxFV_d8SIq0B9xqjTPClc)" d="M210.08,255H115.65a6,6,0,1,0,0,12h94.43a6,6,0,1,0,0-12Z"/><path fill="url(#iaxFV_d8SIq0B9xqjTPClc)" d="M210.08,304H115.65a6,6,0,1,0,0,12h94.43a6,6,0,1,0,0-12Z"/><path fill="url(#iaxFV_d8SIq0B9xqjTPCld)" d="M471.53,133H449v-9.61A37.329,37.329,0,0,0,411.91,86H310.49a36.894,36.894,0,0,0-12.7,2.346L264.6,100.458a25.219,25.219,0,0,1-17.2.026L214.225,88.338A36.928,36.928,0,0,0,201.51,86H143.333a6,6,0,0,0,0,12H201.51a24.989,24.989,0,0,1,8.6,1.624l33.19,12.113a37.211,37.211,0,0,0,6.7,1.79V388.572a25.222,25.222,0,0,1-2.6-.771L214.225,376a36.611,36.611,0,0,0-12.715-2H100.09C86.211,374,75,362.2,75,348.32V123.39A25.316,25.316,0,0,1,100.09,98H126a6,6,0,0,0,0-12H100.09A37.329,37.329,0,0,0,63,123.39V133H40.47C30.545,133,22,141.305,22,151.23V407.79C22,417.715,30.545,426,40.47,426H232a6.128,6.128,0,0,0,2.1-.486,61.422,61.422,0,0,1,43.79.026A6.093,6.093,0,0,0,280,426H471.53c9.925,0,18.47-8.285,18.47-18.21V378.667a6,6,0,1,0-12,0V407.79a6.608,6.608,0,0,1-6.47,6.21H287V392.545l15.065-5.282A23.788,23.788,0,0,1,310.49,386H411.91c20.5,0,37.09-17.179,37.09-37.68V145h22.53a6.625,6.625,0,0,1,6.47,6.23v205.1a6,6,0,1,0,12,0V151.23C490,141.305,481.455,133,471.53,133ZM225,414H40.47A6.608,6.608,0,0,1,34,407.79V151.23A6.625,6.625,0,0,1,40.47,145H63V348.32c0,20.5,16.594,37.68,37.09,37.68H201.51a23.8,23.8,0,0,1,8.441,1.269L225,392.545Zm50-2.173a76.811,76.811,0,0,0-38,0V396.906l6.141,2.173a37.5,37.5,0,0,0,12.769,2.241,38.232,38.232,0,0,0,12.909-2.241L275,396.906ZM437,348.32C437,362.2,425.789,374,411.91,374H310.49a36.6,36.6,0,0,0-12.7,1.991L264.6,387.926a24.268,24.268,0,0,1-2.6.645V113.527a37.056,37.056,0,0,0,6.7-1.738L301.9,99.618A24.964,24.964,0,0,1,310.49,98H411.91A25.316,25.316,0,0,1,437,123.39Z"/><path fill="url(#iaxFV_d8SIq0B9xqjTPCle)" d="M210,157H116a6,6,0,0,0-6,6v53a6,6,0,0,0,6,6h94a6,6,0,0,0,6-6V163A6,6,0,0,0,210,157Zm-6,53H122V169h82Z"/></svg>